<?xml version="1.0" encoding="iso-8859-1"?>
<!-- Uploaded to: SVG Repo, www.svgrepo.com, Generator: SVG Repo Mixer Tools -->
<svg height="800px" width="800px" version="1.1" id="Layer_1" xmlns="http://www.w3.org/2000/svg" xmlns:xlink="http://www.w3.org/1999/xlink" 
	 viewBox="0 0 512 512" xml:space="preserve">
<circle style="fill:#ECF0F1;" cx="256" cy="256" r="256"/>
<g>
	<polygon style="fill:#C6CBD6;" points="227.523,39.83 279.188,39.83 294.396,180.532 215.303,180.532 223.904,59.742 	"/>
	<path style="fill:#C6CBD6;" d="M227.523,39.83c17.226,0,34.445,0,51.665,0l0.283,2.584l-25.242,28.001l-27.121-28.278l0.422-2.307
		H227.523z"/>
</g>
<g>
	<path style="fill:#FF7069;" d="M247.158,79.66c4.017,0.012,8.282-0.066,12.275,0.006c0.458,2.006,0.909,4.011,1.373,6.017
		c5.433,22.869,7.697,52.749,12.859,75.546l-19.358,15.088l-19.4-15.088C239.316,141.859,242.749,99.03,247.158,79.66z"/>
	<path style="fill:#FF7069;" d="M241.394,70.071c2.831-3.379,5.656-6.764,8.486-10.149h6.957c2.831,3.379,5.65,6.764,8.474,10.143
		c-1.379,3.216-2.813,6.414-4.198,9.631c-4.842-0.217-10.582,0.054-15.515-0.012C244.201,76.48,242.798,73.275,241.394,70.071z"/>
</g>
<path style="fill:#384A66;" d="M221.332,102.174l32.018,55.465l32.024-55.465l12.919,188.477c0,0-27.031,22.96-30.217,23.441
	s-4.228-1.915-4.228-1.915l-10.498-23.122l-10.498,23.122c0,0-1.036,2.391-4.228,1.915c-3.186-0.482-30.217-23.441-30.217-23.441
	l12.919-188.477H221.332z"/>
<path style="fill:#FFFFFF;" d="M224.416,45.726l3.108-5.903l22.725,20.093l-16.587,19.93L224.416,45.726z M282.296,45.726
	l-3.108-5.903l-22.725,20.093l16.581,19.93L282.296,45.726z"/>
<path style="fill:#6B7F9E;" d="M280.863,41.986l11.715,12.196l51.189,19.773c0,0,4.782-1.47,6.3,1.801
	c1.518,3.264,31.331,125.278,31.331,125.278l1.915,125.651l-33.807,1.277l-2.548-112.256l-14.672-52.936l-6.378,64.416
	l24.236,117.996c0,0-44.642,20.255-52.46,21.207c-7.812,0.958-9.727-4.945-9.727-4.945l-23.441-146.695L280.863,41.98V41.986z
	 M225.849,41.986l-11.721,12.196l-51.183,19.773c0,0-3.915-1.494-5.433,1.777c-1.512,3.27-32.199,125.308-32.199,125.308
	l-1.915,125.651l33.801,1.277l2.548-112.256l14.672-52.936l6.378,64.416l-24.236,117.996c0,0,44.648,20.255,52.46,21.207
	c7.818,0.958,9.727-4.945,9.727-4.945l23.441-146.695L225.843,41.986H225.849z"/>
<g>
	<path style="fill:#FFFFFF;" d="M125.513,326.764l29.537,1.114v6.613h-29.934l0.398-7.733V326.764z M381.199,326.764l-29.537,1.114
		v6.613h29.934l-0.398-7.733V326.764z"/>
	<path style="fill:#FFFFFF;" d="M195.927,266.486l199.047,65.048c7.746,2.536,11.998,10.914,9.468,18.665l-36.529,111.78
		c-2.536,7.746-10.914,12.004-18.665,9.468l-199.041-65.048c-2.771-0.909-4.541-4.096-6.119-6.342
		c-2.373-3.379-4.734-6.776-7.089-10.167c-7.095-10.227-14.166-20.466-21.237-30.711c-6.451-9.348-12.901-18.701-19.352-28.049
		c-3.975-5.746-4.999-12.558-2.903-19.225c2.096-6.661,6.842-11.66,13.383-14.1c10.908-4.065,21.815-8.137,32.723-12.197
		c11.841-4.409,23.688-8.818,35.548-13.178c3.951-1.452,7.902-2.903,11.865-4.318C189.693,267.155,193.06,265.546,195.927,266.486z
		 M119.64,314.489c4.493-4.571,11.841-4.638,16.413-0.145s4.638,11.835,0.145,16.407c-4.493,4.571-11.841,4.638-16.413,0.145
		s-4.638-11.835-0.145-16.413V314.489z"/>
</g>
<path style="fill:#83CF8F;" d="M193.891,272.708l199.041,65.054c4.318,1.409,6.691,6.089,5.282,10.408l-36.529,111.78
	c-1.409,4.312-6.089,6.691-10.408,5.282l-199.041-65.048c-0.373-0.12-32.578-46.883-50.442-72.757
	c-2.825-4.09-3.535-8.8-2.042-13.54c1.494-4.74,4.77-8.197,9.426-9.932c29.862-11.136,84.141-31.428,84.713-31.241V272.708z
	 M119.64,314.489c4.493-4.571,11.841-4.638,16.413-0.145s4.638,11.835,0.145,16.407c-4.493,4.571-11.841,4.638-16.413,0.145
	s-4.638-11.835-0.145-16.413V314.489z"/>
<g>
	<path style="fill:#FFFFFF;" d="M217.29,310.171c-3.234-2.891-8.559-6.143-16.057-8.27c-18.147-5.132-31.241,2.439-34.999,15.72
		c-2.638,9.33,1.566,18.84,12.329,28.019c7.077,5.945,9.878,9.589,8.535,14.353c-1.319,4.662-5.89,6.878-13.389,4.752
		c-6.288-1.777-12.329-5.571-15.889-8.878l-7.288,14.148c3.072,3.06,10.311,7.3,18.219,9.54c18.96,5.366,32.681-1.704,36.722-15.997
		c2.752-9.733-0.235-18.9-11.13-28.007c-8.3-7.059-10.938-10.107-9.703-14.461c1.09-3.855,5.385-6.252,12.275-4.3
		c6.288,1.777,10.432,4.927,12.871,7.143l7.505-13.75V310.171z M262.679,368.792c3.584-12.672,2.307-25.959-16.551-31.295
		c-9.835-2.783-18.039-2.036-22.267-1.042l-0.024,12.474c4.282-1.193,9.811-1.385,15.184,0.139
		c7.197,2.036,8.233,5.728,7.005,10.088c-16.858-4.662-32.181-1.994-36.457,13.118c-2.728,9.631,1.825,19.46,12.166,22.387
		c5.878,1.662,11.829,1.156,16.569-2.427l0.301,0.084l-0.536,5.764l16.021,4.535c0.265-3.644,1.47-8.673,2.903-13.738l5.68-20.075
		L262.679,368.792z M241.382,377.881c-1.524,5.372-6.324,6.86-9.974,5.83c-3.144-0.891-5.409-3.722-4.09-8.384
		c1.867-6.589,8.751-6.938,16.16-4.842l-2.096,7.402V377.881z M306.316,329.131l-17.84-5.053l-23.128,81.72l17.84,5.053
		L306.316,329.131z M341.532,411.706c-4.427,0.169-9.143-0.181-14.317-1.644c-7.402-2.096-12.6-6.957-11.082-13.865l32.241,9.125
		c0.952-1.813,1.855-4.62,2.626-7.36c5.481-19.364-1.566-31.217-15.154-35.06c-17.033-4.818-30.609,6.776-35.228,23.104
		c-5.053,17.84,2.048,31.458,19.99,36.535c6.794,1.927,13.871,2.831,19.749,2.192l1.168-13.028H341.532z M319.506,383.898
		c1.65-4.674,5.878-10.709,11.962-8.986c6.186,1.753,5.999,8.595,4.565,13.666L319.506,383.898z"/>
	<path style="fill:#FFFFFF;" d="M118.321,316.097c3.289,3.343,55.206,97.921,1.933,120.658
		c-50.822,18.003-16.599-94.675-16.509-94.988l4.891,7.089c-0.078,0.277-28.477,94.717,9.305,81.334
		c42.191-15.834,0.096-101.397-0.006-101.662c-2.572-5.33-2.241-8.92,0.391-12.431H118.321z"/>
</g>
</svg>